<svg xmlns="http://www.w3.org/2000/svg" width="500" height="500.001" viewBox="0 0 500 500.001"><defs><style>.a{fill:#e74c3c;}</style></defs><g transform="translate(0)"><g transform="translate(0)"><g transform="translate(0)"><path class="a" d="M128.418,460.938H59.271a19.843,19.843,0,0,1-15.624-7.428A20.408,20.408,0,0,1,39.51,436.4c20.282-97.423,106.259-168.571,205.513-170.879,1.653.062,3.311.1,4.978.1s3.354-.042,5.021-.1a213.919,213.919,0,0,1,70.543,13.591A19.531,19.531,0,1,0,339.3,242.542q-4.85-1.822-9.761-3.43a132.7,132.7,0,0,0,53.277-106.3C382.813,59.58,323.234,0,250,0S117.188,59.58,117.188,132.813A132.7,132.7,0,0,0,170.55,239.178,253.986,253.986,0,0,0,1.268,428.441a59.337,59.337,0,0,0,58,71.56h69.148a19.531,19.531,0,0,0,0-39.063ZM156.25,132.813a93.75,93.75,0,1,1,98.315,93.638c-1.521-.027-3.041-.051-4.564-.051s-3.054.022-4.579.05A93.866,93.866,0,0,1,156.25,132.813Z" transform="translate(0)"/><path class="a" d="M488.47,343.866A52.628,52.628,0,0,0,440.447,313h-61.04c-21.973,0-41.143,12.949-48.857,33.015-1.026,2.67-2.281,6.033-3.591,9.954H199.082a19.533,19.533,0,0,0-14.014,5.926l-33.551,34.559a19.531,19.531,0,0,0,.083,27.295l34.18,34.777a19.531,19.531,0,0,0,13.93,5.841h63.477a19.531,19.531,0,1,0,0-39.063H207.9l-15.066-15.33,14.509-14.942H341.61a19.531,19.531,0,0,0,18.971-14.886,161.381,161.381,0,0,1,6.43-20.113c1.891-4.918,6.639-7.969,12.442-7.969H440.4a13.326,13.326,0,0,1,12.407,7.746c5.243,11.731,11.5,29.891,11.551,49.791.047,20.048-6.207,38.624-11.464,50.678a13.335,13.335,0,0,1-12.266,8H378.951a13.9,13.9,0,0,1-12.594-8.65,129.82,129.82,0,0,1-6.052-19.333,19.531,19.531,0,1,0-37.989,9.092,168.092,168.092,0,0,0,7.931,25.135,52.687,52.687,0,0,0,48.659,32.818h61.769A52.366,52.366,0,0,0,488.7,475.889c6.75-15.48,14.782-39.562,14.719-66.382C503.359,382.76,495.256,359.048,488.47,343.866Z" transform="translate(-3.422 -7.335)"/><circle class="a" cx="18.892" cy="18.892" r="18.892" transform="translate(401.458 382.565)"/></g></g></g></svg>